<svg width="15" height="15" viewBox="0 0 15 15" fill="none" xmlns="http://www.w3.org/2000/svg">
<path fill-rule="evenodd" clip-rule="evenodd" d="M5.5625 1.25H9.41875C11.1125 1.25 12.4812 1.91875 12.5 3.61875V13.1062C12.5 13.2125 12.475 13.3187 12.425 13.4125C12.3438 13.5625 12.2063 13.675 12.0375 13.725C11.875 13.775 11.6938 13.75 11.5437 13.6625L7.49375 11.6375L3.4375 13.6625C3.34438 13.7119 3.2375 13.7437 3.13125 13.7437C2.78125 13.7437 2.5 13.4562 2.5 13.1062V3.61875C2.5 1.91875 3.875 1.25 5.5625 1.25ZM5.1375 6.0125H9.84375C10.1125 6.0125 10.3312 5.79312 10.3312 5.51875C10.3312 5.24375 10.1125 5.025 9.84375 5.025H5.1375C4.86875 5.025 4.65 5.24375 4.65 5.51875C4.65 5.79312 4.86875 6.0125 5.1375 6.0125Z" fill="#227DDE"/>
</svg>
