<svg width="24" height="24" viewBox="0 0 24 24" fill="none" xmlns="http://www.w3.org/2000/svg">
<path d="M2.75012 3.25L4.83012 3.61L5.79312 15.083C5.87012 16.02 6.65312 16.739 7.59312 16.736H18.5021C19.3991 16.738 20.1601 16.078 20.2871 15.19L21.2361 8.632C21.3421 7.899 20.8331 7.219 20.1011 7.113C20.0371 7.104 5.16412 7.099 5.16412 7.099" stroke="#227DDE" stroke-width="1.5" stroke-linecap="round" stroke-linejoin="round"/>
<path d="M14.1251 10.7949H16.8981" stroke="#227DDE" stroke-width="1.5" stroke-linecap="round" stroke-linejoin="round"/>
<path fill-rule="evenodd" clip-rule="evenodd" d="M7.15441 20.2026C7.45541 20.2026 7.69841 20.4466 7.69841 20.7466C7.69841 21.0476 7.45541 21.2916 7.15441 21.2916C6.85341 21.2916 6.61041 21.0476 6.61041 20.7466C6.61041 20.4466 6.85341 20.2026 7.15441 20.2026Z" fill="#227DDE" stroke="#227DDE" stroke-width="1.5" stroke-linecap="round" stroke-linejoin="round"/>
<path fill-rule="evenodd" clip-rule="evenodd" d="M18.4347 20.2026C18.7357 20.2026 18.9797 20.4466 18.9797 20.7466C18.9797 21.0476 18.7357 21.2916 18.4347 21.2916C18.1337 21.2916 17.8907 21.0476 17.8907 20.7466C17.8907 20.4466 18.1337 20.2026 18.4347 20.2026Z" fill="#227DDE" stroke="#227DDE" stroke-width="1.5" stroke-linecap="round" stroke-linejoin="round"/>
</svg>
