<svg width="24" height="27" viewBox="0 0 24 27" fill="none" xmlns="http://www.w3.org/2000/svg">
<mask id="mask0_1_1973" style="mask-type:luminance" maskUnits="userSpaceOnUse" x="1" y="1" width="22" height="25">
<path fill-rule="evenodd" clip-rule="evenodd" d="M1 1.12134H22.493V25.217H1V1.12134Z" fill="white"/>
</mask>
<g mask="url(#mask0_1_1973)">
<path fill-rule="evenodd" clip-rule="evenodd" d="M6.10844 22.057C6.68844 22.057 7.23544 22.3036 7.81444 22.5648C11.3614 24.4034 15.5564 23.5671 18.2894 20.5043C21.8954 16.4596 21.8954 9.88012 18.2894 5.83761C16.5434 3.88025 14.2214 2.80292 11.7494 2.80292C9.27644 2.80292 6.95344 3.88137 5.20844 5.83873C2.47444 8.90144 1.73044 13.6043 3.35544 17.5425C3.58944 18.1916 3.81544 18.8239 3.81544 19.4808C3.81544 20.1366 3.61444 20.7969 3.43744 21.3799C3.29144 21.8597 3.07044 22.5839 3.21244 22.7431C3.35144 22.9045 4.00144 22.65 4.43044 22.4852C4.94544 22.2879 5.52944 22.0615 6.10844 22.057ZM11.7244 25.2172C10.1964 25.2172 8.65844 24.8551 7.21944 24.1085C6.79544 23.9179 6.39844 23.7386 6.11344 23.7386C5.78544 23.7408 5.34444 23.9112 4.91844 24.076C4.04444 24.4123 2.95644 24.8316 2.15144 23.9325C1.34944 23.0323 1.71944 21.816 2.01744 20.8373C2.16444 20.3552 2.31544 19.8575 2.31544 19.4808C2.31544 19.1714 2.18244 18.7768 1.97844 18.2084C0.105437 13.6738 0.971437 8.20863 4.14844 4.64929C6.17644 2.37467 8.87544 1.12134 11.7484 1.12134C14.6214 1.12134 17.3214 2.37355 19.3494 4.64817C23.5414 9.34762 23.5414 16.9932 19.3494 21.6927C17.2944 23.9975 14.5274 25.2172 11.7244 25.2172Z" fill="#227DDE"/>
</g>
<path fill-rule="evenodd" clip-rule="evenodd" d="M15.6963 14.7563C15.1443 14.7563 14.6923 14.2552 14.6923 13.6352C14.6923 13.0153 15.1353 12.5142 15.6873 12.5142H15.6963C16.2483 12.5142 16.6963 13.0153 16.6963 13.6352C16.6963 14.2552 16.2483 14.7563 15.6963 14.7563Z" fill="#227DDE"/>
<path fill-rule="evenodd" clip-rule="evenodd" d="M11.6875 14.7563C11.1355 14.7563 10.6835 14.2552 10.6835 13.6352C10.6835 13.0153 11.1255 12.5142 11.6785 12.5142H11.6875C12.2395 12.5142 12.6875 13.0153 12.6875 13.6352C12.6875 14.2552 12.2395 14.7563 11.6875 14.7563Z" fill="#227DDE"/>
<path fill-rule="evenodd" clip-rule="evenodd" d="M7.67832 14.7563C7.12632 14.7563 6.67432 14.2552 6.67432 13.6352C6.67432 13.0153 7.11732 12.5142 7.66932 12.5142H7.67832C8.23032 12.5142 8.67832 13.0153 8.67832 13.6352C8.67832 14.2552 8.23032 14.7563 7.67832 14.7563Z" fill="#227DDE"/>
</svg>
