<svg width="32" height="32" viewBox="0 0 32 32" fill="none" xmlns="http://www.w3.org/2000/svg">
<path fill-rule="evenodd" clip-rule="evenodd" d="M20.9394 7C22.2804 7 23.5704 7.53 24.5194 8.481C25.4694 9.43 26.0004 10.71 26.0004 12.05V19.95C26.0004 22.74 23.7304 25 20.9394 25H11.0604C8.26937 25 6.00037 22.74 6.00037 19.95V12.05C6.00037 9.26 8.25937 7 11.0604 7H20.9394ZM22.5304 13.54L22.6104 13.46C22.8494 13.17 22.8494 12.75 22.5994 12.46C22.4604 12.311 22.2694 12.22 22.0704 12.2C21.8604 12.189 21.6604 12.26 21.5094 12.4L17.0004 16C16.4204 16.481 15.5894 16.481 15.0004 16L10.5004 12.4C10.1894 12.17 9.75937 12.2 9.50037 12.47C9.23037 12.74 9.20037 13.17 9.42937 13.47L9.56037 13.6L14.1104 17.15C14.6704 17.59 15.3494 17.83 16.0604 17.83C16.7694 17.83 17.4604 17.59 18.0194 17.15L22.5304 13.54Z" fill="#227DDE"/>
</svg>
