<svg width="24" height="27" viewBox="0 0 24 27" fill="none" xmlns="http://www.w3.org/2000/svg">
<mask id="mask0_1_2015" style="mask-type:luminance" maskUnits="userSpaceOnUse" x="2" y="3" width="21" height="23">
<path fill-rule="evenodd" clip-rule="evenodd" d="M2 3.36304H22.4725V25.2247H2V3.36304Z" fill="white"/>
</mask>
<g mask="url(#mask0_1_2015)">
<path fill-rule="evenodd" clip-rule="evenodd" d="M3.82371 13.5905C5.22571 18.4806 10.7647 22.4345 12.2367 23.4132C13.7137 22.4244 19.2927 18.4268 20.6497 13.595C21.5407 10.4718 20.7137 6.51557 17.4277 5.32837C15.8357 4.75552 13.9787 5.10416 12.6967 6.21625C12.4287 6.44719 12.0567 6.45167 11.7867 6.22297C10.4287 5.07838 8.65471 4.74319 7.03771 5.32837C3.75671 6.51445 2.93271 10.4706 3.82371 13.5905ZM12.2377 25.2248C12.1137 25.2248 11.9907 25.1912 11.8787 25.1228C11.5657 24.9311 4.19271 20.3751 2.39571 14.104C2.39471 14.104 2.39471 14.1029 2.39471 14.1029C1.26671 10.1545 2.52271 5.19273 6.57771 3.72751C8.48171 3.03694 10.5567 3.34075 12.2347 4.52794C13.8607 3.3755 16.0207 3.05712 17.8867 3.72751C21.9457 5.19497 23.2057 10.1556 22.0787 14.1029C20.3397 20.3023 12.9127 24.9266 12.5977 25.1206C12.4857 25.1901 12.3617 25.2248 12.2377 25.2248Z" fill="#227DDE"/>
</g>
<path fill-rule="evenodd" clip-rule="evenodd" d="M18.1537 11.911C17.7667 11.911 17.4387 11.578 17.4067 11.1386C17.3407 10.2171 16.7907 9.43904 16.0077 9.15542C15.6127 9.01192 15.3967 8.53772 15.5237 8.09714C15.6527 7.65545 16.0717 7.41554 16.4677 7.55456C17.8307 8.04894 18.7857 9.40205 18.9027 11.0018C18.9357 11.4648 18.6287 11.8706 18.2157 11.9076C18.1947 11.9098 18.1747 11.911 18.1537 11.911Z" fill="#227DDE"/>
</svg>
