<svg width="24" height="27" viewBox="0 0 24 27" fill="none" xmlns="http://www.w3.org/2000/svg">
<path fill-rule="evenodd" clip-rule="evenodd" d="M21.8887 17.8196H17.8407C15.9437 17.8196 14.3997 16.0898 14.3987 13.9643C14.3987 11.8365 15.9427 10.1056 17.8407 10.1045H21.8887C22.3027 10.1045 22.6387 10.4812 22.6387 10.9453C22.6387 11.4094 22.3027 11.7861 21.8887 11.7861H17.8407C16.7697 11.7872 15.8987 12.7636 15.8987 13.9632C15.8987 15.1616 16.7707 16.138 17.8407 16.138H21.8887C22.3027 16.138 22.6387 16.5147 22.6387 16.9788C22.6387 17.4429 22.3027 17.8196 21.8887 17.8196Z" fill="#227DDE"/>
<path fill-rule="evenodd" clip-rule="evenodd" d="M18.2983 14.7346H17.9863C17.5723 14.7346 17.2363 14.3579 17.2363 13.8938C17.2363 13.4297 17.5723 13.053 17.9863 13.053H18.2983C18.7123 13.053 19.0483 13.4297 19.0483 13.8938C19.0483 14.3579 18.7123 14.7346 18.2983 14.7346Z" fill="#227DDE"/>
<mask id="mask0_1_1987" style="mask-type:luminance" maskUnits="userSpaceOnUse" x="2" y="3" width="21" height="22">
<path fill-rule="evenodd" clip-rule="evenodd" d="M2 3.36304H22.6386V24.8569H2V3.36304Z" fill="white"/>
</mask>
<g mask="url(#mask0_1_1987)">
<path fill-rule="evenodd" clip-rule="evenodd" d="M7.99763 5.04462C5.51763 5.04462 3.49963 7.3069 3.49963 10.0871V18.1329C3.49963 20.9131 5.51763 23.1754 7.99763 23.1754H16.6416C19.1216 23.1754 21.1386 20.9131 21.1386 18.1329V10.0871C21.1386 7.3069 19.1216 5.04462 16.6416 5.04462H7.99763ZM16.6416 24.857H7.99763C4.69063 24.857 1.99963 21.8402 1.99963 18.1329V10.0871C1.99963 6.37867 4.69063 3.36304 7.99763 3.36304H16.6416C19.9486 3.36304 22.6386 6.37867 22.6386 10.0871V18.1329C22.6386 21.8402 19.9486 24.857 16.6416 24.857Z" fill="#227DDE"/>
</g>
<path fill-rule="evenodd" clip-rule="evenodd" d="M12.6846 10.132H7.28564C6.87164 10.132 6.53564 9.75534 6.53564 9.29123C6.53564 8.82711 6.87164 8.45044 7.28564 8.45044H12.6846C13.0986 8.45044 13.4346 8.82711 13.4346 9.29123C13.4346 9.75534 13.0986 10.132 12.6846 10.132Z" fill="#227DDE"/>
</svg>
