<svg width="15" height="15" viewBox="0 0 15 15" fill="none" xmlns="http://www.w3.org/2000/svg">
<path d="M12.1875 12.1875H2.8125C2.56386 12.1875 2.3254 12.0887 2.14959 11.9129C1.97377 11.7371 1.875 11.4986 1.875 11.25V4.6875C1.875 4.43886 1.97377 4.2004 2.14959 4.02459C2.3254 3.84877 2.56386 3.75 2.8125 3.75H4.68716L5.62466 2.34375H9.37466L10.3122 3.75H12.1875C12.4361 3.75 12.6746 3.84877 12.8504 4.02459C13.0262 4.2004 13.125 4.43886 13.125 4.6875V11.25C13.125 11.4986 13.0262 11.7371 12.8504 11.9129C12.6746 12.0887 12.4361 12.1875 12.1875 12.1875Z" stroke="#227DDE" stroke-linecap="round" stroke-linejoin="round"/>
<path d="M7.5 9.84375C8.66498 9.84375 9.60938 8.89935 9.60938 7.73438C9.60938 6.5694 8.66498 5.625 7.5 5.625C6.33502 5.625 5.39062 6.5694 5.39062 7.73438C5.39062 8.89935 6.33502 9.84375 7.5 9.84375Z" stroke="#227DDE" stroke-linecap="round" stroke-linejoin="round"/>
</svg>
