<svg width="32" height="32" viewBox="0 0 32 32" fill="none" xmlns="http://www.w3.org/2000/svg">
<path d="M11.96 29.3334H19.96C26.6267 29.3334 29.2934 26.6667 29.2934 20V12C29.2934 5.33335 26.6267 2.66669 19.96 2.66669H11.96C5.29338 2.66669 2.62671 5.33335 2.62671 12V20C2.62671 26.6667 5.29338 29.3334 11.96 29.3334Z" stroke="#227DDE" stroke-width="2" stroke-linecap="round" stroke-linejoin="round"/>
<path d="M2.62671 16.9333L10.6267 16.9067C11.6267 16.9067 12.7467 17.6667 13.12 18.6L14.64 22.44C14.9867 23.3067 15.5334 23.3067 15.88 22.44L18.9334 14.6933C19.2267 13.9467 19.7734 13.92 20.1467 14.6267L21.5334 17.2533C21.9467 18.04 23.0134 18.68 23.8934 18.68H29.3067" stroke="#227DDE" stroke-width="2" stroke-linecap="round" stroke-linejoin="round"/>
</svg>
