<svg width="32" height="32" viewBox="0 0 32 32" fill="none" xmlns="http://www.w3.org/2000/svg">
<g clip-path="url(#clip0_16_2741)">
<path d="M30.1057 5.85123C29.2534 3.19592 27.4364 1.24717 25.1206 0.504543C20.8511 -0.864582 17.3403 0.895793 16 1.73854C14.6595 0.895731 11.1486 -0.864582 6.87935 0.504543C4.56285 1.24736 2.74566 3.19686 1.8936 5.85317C0.773164 9.34617 1.49673 13.3031 3.82935 16.4379C4.84348 17.8009 5.52916 19.3035 5.86729 20.9041C6.01748 21.6152 6.14804 22.3976 6.25529 23.2296C6.57735 25.7282 7.05166 27.7335 7.66516 29.19C8.40004 30.9347 9.3481 31.8769 10.483 31.9904C10.5476 31.9968 10.6114 32 10.6749 32C11.7919 31.9999 12.7254 30.9974 13.4517 29.016C13.9886 27.5512 14.4119 25.5884 14.6435 23.489C14.773 22.3151 15.076 21.3646 15.5195 20.7402C15.6783 20.5167 15.9085 20.4926 16 20.4926C16.0916 20.4926 16.3218 20.5167 16.4806 20.7403C16.9241 21.3646 17.227 22.3151 17.3565 23.489C17.5882 25.5884 18.0115 27.5512 18.5484 29.016C19.2747 30.9975 20.2081 32.0001 21.3252 32C21.3886 32 21.4526 31.9968 21.5171 31.9904C22.652 31.8769 23.6 30.9347 24.3349 29.19C24.9484 27.7336 25.4227 25.7282 25.7448 23.2297C25.852 22.3975 25.9826 21.6152 26.1327 20.9045C26.4706 19.3052 27.1573 17.8011 28.1737 16.4339C30.5043 13.2992 31.2265 9.34298 30.1057 5.85123ZM26.6728 15.318C25.4942 16.9034 24.6969 18.6529 24.3028 20.518C24.1424 21.2772 24.0034 22.1092 23.8898 22.9906C23.2342 28.0764 22.0127 30.0396 21.3427 30.128C21.202 30.0782 20.7208 29.6155 20.2034 28.085C19.7649 26.788 19.4142 25.0829 19.2156 23.2839C19.0489 21.773 18.6417 20.5529 18.0054 19.6571C17.545 19.0091 16.7954 18.6222 16 18.6222C15.2046 18.6222 14.4549 19.009 13.9945 19.6572C13.3582 20.553 12.951 21.7732 12.7843 23.2839C12.5857 25.083 12.235 26.788 11.7965 28.085C11.2792 29.6156 10.7979 30.0782 10.6572 30.128C9.98729 30.0397 8.76566 28.0765 8.1101 22.9907C7.99648 22.1094 7.85754 21.2774 7.69704 20.5177C7.30273 18.651 6.50623 16.9029 5.32973 15.3215C3.35679 12.67 2.7381 9.34398 3.67454 6.42454C4.33985 4.35036 5.7161 2.84179 7.45041 2.28567C9.28129 1.69848 11.1692 1.73611 13.0617 2.39736C14.5072 2.90248 15.4143 3.60117 15.421 3.60642L15.9986 4.05798L16.5766 3.60817C16.5856 3.60117 17.4927 2.90248 18.9382 2.39736C20.8307 1.73604 22.7185 1.69848 24.5495 2.28567H24.5495C26.2833 2.84161 27.6594 4.34961 28.3249 6.42292C29.2616 9.34123 28.644 12.6665 26.6728 15.318Z" fill="#227DDE"/>
</g>
<defs>
<clipPath id="clip0_16_2741">
<rect width="32" height="32" fill="white"/>
</clipPath>
</defs>
</svg>
