<svg width="21" height="20" viewBox="0 0 21 20" fill="none" xmlns="http://www.w3.org/2000/svg">
<path d="M12.937 6.24963L6.20081 12.8661C5.95818 13.1006 5.82188 13.4185 5.82188 13.75C5.82188 14.0815 5.95818 14.3995 6.20081 14.6339C6.44343 14.8683 6.7725 15 7.11563 15C7.45875 15 7.78782 14.8683 8.03045 14.6339L16.0604 6.7674C16.3007 6.53525 16.4913 6.25966 16.6213 5.95634C16.7513 5.65303 16.8183 5.32794 16.8183 4.99963C16.8183 4.67133 16.7513 4.34624 16.6213 4.04293C16.4913 3.73961 16.3007 3.46401 16.0604 3.23187C15.8201 2.99972 15.5349 2.81557 15.221 2.68994C14.907 2.5643 14.5706 2.49963 14.2308 2.49963C13.891 2.49963 13.5545 2.5643 13.2406 2.68994C12.9267 2.81557 12.6414 2.99972 12.4011 3.23187L4.37117 11.0984C3.64329 11.8016 3.23438 12.7555 3.23438 13.75C3.23438 14.7446 3.64329 15.6984 4.37117 16.4017C5.09904 17.1049 6.08625 17.5 7.11563 17.5C8.145 17.5 9.13221 17.1049 9.86008 16.4017L16.4948 9.99964" stroke="#90979E" stroke-linecap="round" stroke-linejoin="round"/>
</svg>
