<svg width="20" height="20" viewBox="0 0 20 20" fill="none" xmlns="http://www.w3.org/2000/svg">
<path d="M9.57693 2.32416H6.4611C3.8986 2.32416 2.29193 4.13832 2.29193 6.70666V13.635C2.29193 16.2033 3.8911 18.0175 6.4611 18.0175H13.8144C16.3853 18.0175 17.9844 16.2033 17.9844 13.635V10.2783" stroke="#227DDE" stroke-width="1.5" stroke-linecap="round" stroke-linejoin="round"/>
<path fill-rule="evenodd" clip-rule="evenodd" d="M7.35652 9.10074L13.584 2.87324C14.3599 2.09824 15.6174 2.09824 16.3932 2.87324L17.4074 3.88741C18.1832 4.66324 18.1832 5.92158 17.4074 6.69658L11.1499 12.9541C10.8107 13.2932 10.3507 13.4841 9.87069 13.4841H6.74902L6.82736 10.3341C6.83902 9.87074 7.02819 9.42908 7.35652 9.10074Z" stroke="#227DDE" stroke-width="1.5" stroke-linecap="round" stroke-linejoin="round"/>
<path d="M12.6377 3.83539L16.4427 7.64039" stroke="#227DDE" stroke-width="1.5" stroke-linecap="round" stroke-linejoin="round"/>
</svg>
