<svg width="32" height="32" viewBox="0 0 32 32" fill="none" xmlns="http://www.w3.org/2000/svg">
<path d="M12.1917 27.7095V23.6203C12.1917 22.5841 13.0343 21.7423 14.078 21.7358H17.9102C18.9585 21.7358 19.8084 22.5795 19.8084 23.6203V27.6976C19.8084 28.5964 20.5387 29.3268 21.444 29.3333H24.0585C25.2796 29.3364 26.4517 28.8571 27.3163 28.0009C28.1808 27.1448 28.6667 25.9823 28.6667 24.77V13.1545C28.6667 12.1752 28.2295 11.2463 27.4729 10.618L18.5907 3.56569C17.0381 2.33216 14.8205 2.37201 13.3139 3.66051L4.62272 10.618C3.83036 11.2278 3.35678 12.1594 3.33337 13.1545V24.7582C3.33337 27.2849 5.39655 29.3333 7.94161 29.3333H10.4964C10.9323 29.3364 11.3514 29.1668 11.6607 28.8619C11.97 28.557 12.1439 28.1422 12.1439 27.7095H12.1917Z" fill="#227DDE"/>
</svg>
