<svg width="32" height="32" viewBox="0 0 32 32" fill="none" xmlns="http://www.w3.org/2000/svg">
<mask id="mask0_0_73" style="mask-type:luminance" maskUnits="userSpaceOnUse" x="6" y="5" width="21" height="22">
<path fill-rule="evenodd" clip-rule="evenodd" d="M6 5.00024H26.4998V26.5052H6V5.00024Z" fill="white"/>
</mask>
<g mask="url(#mask0_0_73)">
<path fill-rule="evenodd" clip-rule="evenodd" d="M17.7168 19.2914C18.9208 19.2914 19.9008 20.2644 19.9008 21.4604V24.5364C19.9008 24.7934 20.1068 24.9994 20.3708 25.0054H22.2768C23.7788 25.0054 24.9998 23.7994 24.9998 22.3174V13.5934C24.9928 13.0834 24.7498 12.6034 24.3328 12.2844L17.7398 7.02637C16.8548 6.32537 15.6168 6.32537 14.7288 7.02837L8.18076 12.2824C7.74776 12.6114 7.50476 13.0914 7.49976 13.6104V22.3174C7.49976 23.7994 8.72076 25.0054 10.2228 25.0054H12.1468C12.4178 25.0054 12.6378 24.7904 12.6378 24.5264C12.6378 24.4684 12.6448 24.4104 12.6568 24.3554V21.4604C12.6568 20.2714 13.6308 19.2994 14.8258 19.2914H17.7168ZM22.2768 26.5054H20.3528C19.2508 26.4794 18.4008 25.6144 18.4008 24.5364V21.4604C18.4008 21.0914 18.0938 20.7914 17.7168 20.7914H14.8308C14.4618 20.7934 14.1568 21.0944 14.1568 21.4604V24.5264C14.1568 24.6014 14.1468 24.6734 14.1258 24.7414C14.0178 25.7314 13.1718 26.5054 12.1468 26.5054H10.2228C7.89376 26.5054 5.99976 24.6264 5.99976 22.3174V13.6034C6.00976 12.6094 6.46776 11.6994 7.25876 11.1004L13.7938 5.85537C15.2328 4.71537 17.2378 4.71537 18.6738 5.85337L25.2558 11.1034C26.0288 11.6924 26.4868 12.6004 26.4998 13.5824V22.3174C26.4998 24.6264 24.6058 26.5054 22.2768 26.5054Z" fill="#90979E"/>
</g>
</svg>
