<svg width="18" height="18" viewBox="0 0 18 18" fill="none" xmlns="http://www.w3.org/2000/svg">
<path d="M14.4937 7.10107C14.4937 7.10107 14.0864 12.1523 13.8502 14.2801C13.7377 15.2963 13.1099 15.8918 12.0817 15.9106C10.1249 15.9458 8.16593 15.9481 6.20993 15.9068C5.22068 15.8866 4.60343 15.2836 4.49318 14.2853C4.25543 12.1388 3.85043 7.10107 3.85043 7.10107" stroke="#90979E" stroke-width="1.5" stroke-linecap="round" stroke-linejoin="round"/>
<path d="M15.5311 4.67969H2.81264" stroke="#90979E" stroke-width="1.5" stroke-linecap="round" stroke-linejoin="round"/>
<path d="M13.0804 4.67974C12.4917 4.67974 11.9847 4.26349 11.8692 3.68674L11.6869 2.77474C11.5744 2.35399 11.1934 2.06299 10.7592 2.06299H7.58441C7.15016 2.06299 6.76916 2.35399 6.65666 2.77474L6.47441 3.68674C6.35891 4.26349 5.85191 4.67974 5.26316 4.67974" stroke="#90979E" stroke-width="1.5" stroke-linecap="round" stroke-linejoin="round"/>
</svg>
