<svg width="24" height="27" viewBox="0 0 24 27" fill="none" xmlns="http://www.w3.org/2000/svg">
<path fill-rule="evenodd" clip-rule="evenodd" d="M15.7158 19.0285H8.49585C8.08185 19.0285 7.74585 18.6518 7.74585 18.1877C7.74585 17.7236 8.08185 17.3469 8.49585 17.3469H15.7158C16.1298 17.3469 16.4658 17.7236 16.4658 18.1877C16.4658 18.6518 16.1298 19.0285 15.7158 19.0285Z" fill="#227DDE"/>
<path fill-rule="evenodd" clip-rule="evenodd" d="M15.7158 14.3351H8.49585C8.08185 14.3351 7.74585 13.9585 7.74585 13.4944C7.74585 13.0302 8.08185 12.6536 8.49585 12.6536H15.7158C16.1298 12.6536 16.4658 13.0302 16.4658 13.4944C16.4658 13.9585 16.1298 14.3351 15.7158 14.3351Z" fill="#227DDE"/>
<path fill-rule="evenodd" clip-rule="evenodd" d="M11.2505 9.65277H8.49548C8.08148 9.65277 7.74548 9.2761 7.74548 8.81198C7.74548 8.34787 8.08148 7.97119 8.49548 7.97119H11.2505C11.6645 7.97119 12.0005 8.34787 12.0005 8.81198C12.0005 9.2761 11.6645 9.65277 11.2505 9.65277Z" fill="#227DDE"/>
<mask id="mask0_1_2001" style="mask-type:luminance" maskUnits="userSpaceOnUse" x="3" y="2" width="19" height="23">
<path fill-rule="evenodd" clip-rule="evenodd" d="M3 2.24243H21.1647V24.5624H3V2.24243Z" fill="white"/>
</mask>
<g mask="url(#mask0_1_2001)">
<path fill-rule="evenodd" clip-rule="evenodd" d="M15.9088 3.92377L8.21976 3.92825C5.89176 3.94395 4.49976 5.55826 4.49976 8.24767V18.5569C4.49976 21.2642 5.90476 22.8808 8.25576 22.8808L15.9448 22.8774C18.2728 22.8617 19.6648 21.2452 19.6648 18.5569V8.24767C19.6648 5.54032 18.2608 3.92377 15.9088 3.92377ZM8.25676 24.5623C5.11276 24.5623 2.99976 22.1487 2.99976 18.5569V8.24767C2.99976 4.6233 5.04676 2.26797 8.21476 2.24667L15.9078 2.24219H15.9088C19.0528 2.24219 21.1648 4.65581 21.1648 8.24767V18.5569C21.1648 22.1801 19.1178 24.5366 15.9498 24.559L8.25676 24.5623Z" fill="#227DDE"/>
</g>
</svg>
