<svg width="60" height="66" viewBox="0 0 60 66" fill="none" xmlns="http://www.w3.org/2000/svg">
<path d="M47.4909 0C44.2063 0.00370309 41.0571 1.30994 38.7346 3.63212C36.412 5.95432 35.1054 9.10281 35.1018 12.3869V20.6445H24.7779V12.3869C24.7611 9.11274 23.4484 5.9784 21.1269 3.66912C18.8053 1.35983 15.6637 0.0634896 12.3889 0.0634896C9.11414 0.0634896 5.97254 1.35983 3.65099 3.66912C1.32945 5.9784 0.0167838 9.11274 0 12.3869V53.6766C0.0167838 56.9508 1.32945 60.085 3.65099 62.3942C5.97254 64.7035 9.11414 66 12.3889 66C15.6637 66 18.8053 64.7035 21.1269 62.3942C23.4484 60.085 24.7611 56.9508 24.7779 53.6766V49.5476L20.6482 47.4831V53.6766C20.6482 55.31 20.1638 56.9065 19.2562 58.2645C18.3486 59.6226 17.0586 60.6809 15.5494 61.306C14.0402 61.9308 12.3795 62.0945 10.7773 61.7759C9.17515 61.457 7.70347 60.6708 6.54839 59.5158C5.39331 58.3609 4.60668 56.8893 4.28802 55.2875C3.96939 53.6854 4.13299 52.0251 4.75817 50.5161C5.38335 49.0074 6.44204 47.7174 7.80035 46.8101C9.15862 45.9028 10.7555 45.4185 12.3891 45.4185H47.4909C49.1245 45.4185 50.7214 45.9028 52.0794 46.8104C53.4378 47.7177 54.4964 49.0074 55.1215 50.5164C55.7467 52.0254 55.9104 53.6858 55.5915 55.2875C55.2729 56.8896 54.4863 58.3609 53.331 59.5158C52.1761 60.6708 50.7045 61.4573 49.1021 61.7759C47.5 62.0945 45.8393 61.9308 44.33 61.306C42.821 60.6809 41.531 59.6226 40.6233 58.2645C39.716 56.9065 39.2315 55.31 39.2315 53.6766V49.5476L35.1018 47.4831V53.6766C35.1187 56.9508 36.4312 60.085 38.7528 62.3942C41.0744 64.7035 44.2161 66 47.4906 66C50.7654 66 53.907 64.7035 56.2287 62.3942C58.5503 60.085 59.8627 56.9508 59.8797 53.6766V12.3869C59.8761 9.10288 58.5695 5.95441 56.2469 3.63225C53.9246 1.31006 50.7754 0.0037892 47.4909 0ZM39.2315 12.3869C39.2315 10.7536 39.7157 9.157 40.6233 7.79895C41.531 6.4409 42.8206 5.38241 44.33 4.75732C45.839 4.13227 47.4997 3.96868 49.1021 4.28727C50.7042 4.60587 52.1758 5.39233 53.331 6.54722C54.4863 7.7021 55.2729 9.17353 55.5915 10.7754C55.9104 12.3773 55.7467 14.0377 55.1215 15.5467C54.4964 17.0556 53.4378 18.3454 52.0798 19.2528C50.7214 20.1602 49.1245 20.6445 47.4909 20.6445H39.2315V12.3869ZM12.3891 4.12898C14.5788 4.13155 16.6781 5.00244 18.2264 6.55054C19.7747 8.09863 20.6457 10.1976 20.6482 12.3869V20.6445H12.3891C11.3001 20.6514 10.2205 20.4428 9.21248 20.0309C8.20443 19.6189 7.2878 19.0117 6.51536 18.2443C5.74288 17.4768 5.12984 16.5642 4.71153 15.5589C4.29323 14.5536 4.07786 13.4755 4.07786 12.3868C4.07786 11.2979 4.29323 10.2199 4.71153 9.2146C5.12984 8.20931 5.74288 7.29668 6.51536 6.52919C7.2878 5.76173 8.20443 5.15454 9.21248 4.74261C10.2205 4.33068 11.3001 4.12215 12.3891 4.12898ZM47.4909 41.2888H12.3891C9.33979 41.2862 6.39752 42.4126 4.1297 44.4507V21.6115C6.39755 23.6495 9.33982 24.7758 12.3891 24.7731H47.4909C50.5402 24.7758 53.4824 23.6495 55.75 21.6115V44.4507C53.4824 42.4126 50.5402 41.2862 47.4909 41.2888Z" fill="#227DDE"/>
</svg>
