<svg width="24" height="27" viewBox="0 0 24 27" fill="none" xmlns="http://www.w3.org/2000/svg">
<path d="M5 5.60514H11C11.55 5.60514 12 5.10067 12 4.48409C12 3.86751 11.55 3.36304 11 3.36304H5C3.9 3.36304 3 4.37198 3 5.60514V21.2999C3 22.533 3.9 23.542 5 23.542H11C11.55 23.542 12 23.0375 12 22.4209C12 21.8044 11.55 21.2999 11 21.2999H5V5.60514Z" fill="#FF5C5C"/>
<path d="M20.65 13.0601L17.86 9.93234C17.7905 9.85224 17.7012 9.79723 17.6036 9.77435C17.506 9.75146 17.4045 9.76175 17.3121 9.80388C17.2198 9.84602 17.1408 9.91809 17.0851 10.0109C17.0295 10.1037 16.9999 10.2129 17 10.3247V12.3314H10C9.45 12.3314 9 12.8359 9 13.4524C9 14.069 9.45 14.5735 10 14.5735H17V16.5802C17 17.0847 17.54 17.3313 17.85 16.9726L20.64 13.8448C20.84 13.6318 20.84 13.2731 20.65 13.0601Z" fill="#FF5C5C"/>
</svg>
