<svg width="118" height="130" viewBox="0 0 118 130" fill="none" xmlns="http://www.w3.org/2000/svg">
<path d="M93.5426 0C87.0731 0.00729397 80.8701 2.58019 76.2953 7.15417C71.7205 11.7282 69.1469 17.9298 69.1399 24.3985V40.6635H48.8049V24.3985C48.7718 17.9493 46.1863 11.7756 41.6135 7.22705C37.0408 2.67846 30.8528 0.125055 24.4024 0.125055C17.9521 0.125055 11.7641 2.67846 7.19135 7.22705C2.61861 11.7756 0.033059 17.9493 0 24.3985V105.727C0.033059 112.176 2.61861 118.349 7.19135 122.898C11.7641 127.446 17.9521 130 24.4024 130C30.8528 130 37.0408 127.446 41.6135 122.898C46.1863 118.349 48.7718 112.176 48.8049 105.727V97.5937L40.6706 93.5273V105.727C40.6706 108.944 39.7165 112.089 37.9288 114.763C36.1412 117.438 33.6004 119.523 30.6277 120.754C27.6549 121.985 24.3839 122.307 21.228 121.68C18.0723 121.052 15.1735 119.503 12.8983 117.228C10.6232 114.953 9.07376 112.055 8.4461 108.9C7.8185 105.744 8.14073 102.474 9.37215 99.5014C10.6036 96.5297 12.6889 93.9888 15.3643 92.2017C18.0397 90.4146 21.1851 89.4608 24.4028 89.4608H93.5426C96.7604 89.4608 99.9058 90.4146 102.581 92.2023C105.256 93.9894 107.341 96.5297 108.573 99.502C109.804 102.474 110.127 105.745 109.498 108.9C108.871 112.055 107.322 114.953 105.046 117.228C102.771 119.503 99.8725 121.052 96.7162 121.68C93.5606 122.307 90.2896 121.985 87.3166 120.754C84.3443 119.523 81.8034 117.438 80.0157 114.763C78.2286 112.089 77.2741 108.944 77.2741 105.727V97.5937L69.1399 93.5273V105.727C69.1732 112.176 71.7584 118.349 76.3312 122.898C80.9041 127.446 87.0923 130 93.542 130C99.9924 130 106.181 127.446 110.753 122.898C115.326 118.349 117.911 112.176 117.945 105.727V24.3985C117.938 17.9299 115.364 11.7284 110.789 7.15443C106.215 2.58043 100.012 0.00746358 93.5426 0ZM77.2741 24.3985C77.2741 21.1814 78.2279 18.0365 80.0157 15.3616C81.8034 12.6866 84.3437 10.6017 87.3166 9.37048C90.2889 8.13932 93.56 7.81709 96.7162 8.44462C99.8718 9.07216 102.77 10.6213 105.046 12.896C107.322 15.1708 108.871 18.0691 109.498 21.2243C110.127 24.3796 109.804 27.6501 108.573 30.6222C107.341 33.5944 105.256 36.1348 102.581 37.9221C99.9058 39.7095 96.7604 40.6635 93.5426 40.6635H77.2741V24.3985ZM24.4028 8.13284C28.7158 8.13791 32.8508 9.85328 35.9005 12.9026C38.9503 15.9519 40.6657 20.0862 40.6706 24.3985V40.6635H24.4028C22.2578 40.6769 20.1313 40.2661 18.1458 39.4547C16.1602 38.6433 14.3547 37.4474 12.8333 35.9357C11.3117 34.424 10.1042 32.6264 9.28029 30.6463C8.45636 28.6662 8.03214 26.5427 8.03214 24.3981C8.03214 22.2535 8.45636 20.1301 9.28029 18.15C10.1042 16.1699 11.3117 14.3722 12.8333 12.8605C14.3547 11.3489 16.1602 10.1529 18.1458 9.34151C20.1313 8.53013 22.2578 8.11938 24.4028 8.13284ZM93.5426 81.3265H24.4028C18.3966 81.3214 12.6012 83.5399 8.13425 87.5544V42.5681C12.6012 46.5824 18.3966 48.8008 24.4028 48.7956H93.5426C99.5488 48.8008 105.344 46.5824 109.811 42.5681V87.5544C105.344 83.5399 99.5488 81.3214 93.5426 81.3265Z" fill="white"/>
</svg>
