<svg width="32" height="32" viewBox="0 0 32 32" fill="none" xmlns="http://www.w3.org/2000/svg">
<path d="M22 4C20.8358 3.998 19.6873 4.26769 18.6457 4.78761C17.6041 5.30754 16.6982 6.06335 16 6.99493C15.0545 5.73686 13.7372 4.80799 12.2347 4.33975C10.7322 3.87152 9.12048 3.88763 7.62762 4.38581C6.13477 4.88399 4.83637 5.839 3.91616 7.11572C2.99595 8.39245 2.50053 9.92621 2.5 11.5C2.50796 12.6929 2.71626 13.8761 3.11621 15H8.46484L10.168 12.4453C10.2593 12.3083 10.383 12.196 10.5281 12.1183C10.6733 12.0406 10.8354 12 11 12C11.1646 12 11.3267 12.0406 11.4719 12.1183C11.617 12.196 11.7407 12.3083 11.832 12.4453L15 17.1972L16.168 15.4453C16.2593 15.3083 16.383 15.196 16.5281 15.1183C16.6733 15.0406 16.8354 15 17 15H20C20.2652 15 20.5196 15.1054 20.7071 15.2929C20.8946 15.4804 21 15.7348 21 16C21 16.2652 20.8946 16.5196 20.7071 16.7071C20.5196 16.8946 20.2652 17 20 17H17.5352L15.832 19.5547C15.7407 19.6917 15.617 19.804 15.4719 19.8817C15.3267 19.9594 15.1646 20 15 20C14.8354 20 14.6733 19.9594 14.5281 19.8817C14.383 19.804 14.2593 19.6917 14.168 19.5547L11 14.8028L9.83203 16.5547C9.74072 16.6917 9.617 16.804 9.47185 16.8817C9.32671 16.9594 9.16463 17 9 17H3.99799C7.32935 23.2263 15.0947 27.6392 15.5114 27.8725C15.6606 27.9561 15.8289 28 16 28C16.1711 28 16.3394 27.9561 16.4886 27.8725C18.784 26.5282 20.9382 24.9563 22.9189 23.1808C27.2858 19.2506 29.5 15.3206 29.5 11.5C29.4977 9.51157 28.7068 7.60522 27.3008 6.19919C25.8948 4.79315 23.9884 4.00225 22 4Z" fill="white"/>
</svg>
