<svg width="32" height="32" viewBox="0 0 32 32" fill="none" xmlns="http://www.w3.org/2000/svg">
<path d="M24.641 8.32556C23.0067 5.7229 20.9023 3.49109 19.0593 1.65137C18.9461 1.53829 18.8074 1.45405 18.6549 1.4057C18.5023 1.35735 18.3404 1.34632 18.1828 1.37353C18.0251 1.40074 17.8762 1.4654 17.7487 1.56207C17.6212 1.65874 17.5188 1.7846 17.45 1.92908L13.5937 10.0273L9.5592 7.33765C9.44978 7.26469 9.32704 7.21403 9.19801 7.18858C9.06898 7.16313 8.93619 7.16339 8.80726 7.18933C8.67833 7.21527 8.55578 7.2664 8.44663 7.33978C8.33749 7.41315 8.24389 7.50734 8.1712 7.61694C5.73517 11.2892 4.5 14.6144 4.5 17.5C4.5 20.55 5.7116 23.4751 7.86827 25.6317C10.0249 27.7884 12.95 29 16 29C19.05 29 21.9751 27.7884 24.1317 25.6317C26.2884 23.4751 27.5 20.55 27.5 17.5C27.5 14.3903 26.5648 11.3893 24.641 8.32556ZM23.4118 18.6526C23.1731 20.2273 22.4368 21.6843 21.3106 22.8105C20.1844 23.9367 18.7274 24.6731 17.1527 24.9119C17.1018 24.9197 17.0504 24.9237 16.9988 24.9237C16.747 24.9234 16.5045 24.828 16.3199 24.6567C16.1353 24.4854 16.0221 24.2507 16.003 23.9996C15.9838 23.7484 16.0602 23.4993 16.2167 23.302C16.3733 23.1047 16.5985 22.9738 16.8474 22.9353C17.9974 22.75 19.0596 22.2069 19.8833 21.3833C20.7069 20.5597 21.2499 19.4974 21.4352 18.3474C21.4553 18.2176 21.5007 18.0931 21.5689 17.9808C21.637 17.8686 21.7267 17.7709 21.8326 17.6933C21.9385 17.6157 22.0587 17.5597 22.1863 17.5286C22.3139 17.4974 22.4463 17.4917 22.5761 17.5117C22.7059 17.5318 22.8305 17.5772 22.9427 17.6453C23.0549 17.7135 23.1526 17.8031 23.2302 17.9091C23.3078 18.015 23.3638 18.1352 23.395 18.2628C23.4261 18.3903 23.4318 18.5228 23.4118 18.6526Z" fill="white"/>
</svg>
