<svg width="17" height="20" viewBox="0 0 17 20" fill="none" xmlns="http://www.w3.org/2000/svg">
<g clip-path="url(#clip0_694_129)">
<path d="M14.04 19.2C12.956 20.252 11.76 20.088 10.62 19.592C9.40802 19.086 8.30002 19.054 7.02002 19.592C5.42602 20.28 4.58002 20.08 3.62002 19.2C-1.79998 13.62 -0.999985 5.12 5.16002 4.8C6.65402 4.88 7.70002 5.626 8.58002 5.688C9.88802 5.422 11.14 4.66001 12.54 4.76001C14.222 4.896 15.48 5.56 16.32 6.754C12.86 8.83399 13.68 13.394 16.858 14.674C16.222 16.344 15.406 17.994 14.038 19.214L14.04 19.2ZM8.46002 4.74001C8.29802 2.26001 10.308 0.220019 12.62 0.0200195C12.938 2.88001 10.02 5.02 8.46002 4.74001Z" fill="#0B0C0C"/>
</g>
<defs>
<clipPath id="clip0_694_129">
<rect width="16.84" height="20" fill="white"/>
</clipPath>
</defs>
</svg>
