<svg width="32" height="32" viewBox="0 0 32 32" fill="none" xmlns="http://www.w3.org/2000/svg">
<g clip-path="url(#clip0_14_4929)">
<path d="M8 5.33334H6.66667C5.95942 5.33334 5.28115 5.61429 4.78105 6.11439C4.28095 6.61449 4 7.29277 4 8.00001V12.6667C4 14.6116 4.77262 16.4769 6.14788 17.8521C7.52315 19.2274 9.38841 20 11.3333 20C13.2783 20 15.1435 19.2274 16.5188 17.8521C17.894 16.4769 18.6667 14.6116 18.6667 12.6667V8.00001C18.6667 7.29277 18.3857 6.61449 17.8856 6.11439C17.3855 5.61429 16.7072 5.33334 16 5.33334H14.6667" stroke="#227DDE" stroke-width="2" stroke-linecap="round" stroke-linejoin="round"/>
<path d="M10.6666 20C10.6666 21.0506 10.8736 22.0909 11.2756 23.0615C11.6776 24.0321 12.2669 24.914 13.0098 25.6569C13.7526 26.3997 14.6346 26.989 15.6052 27.391C16.5758 27.7931 17.6161 28 18.6666 28C19.7172 28 20.7575 27.7931 21.7281 27.391C22.6987 26.989 23.5806 26.3997 24.3235 25.6569C25.0663 24.914 25.6556 24.0321 26.0577 23.0615C26.4597 22.0909 26.6666 21.0506 26.6666 20V16" stroke="#227DDE" stroke-width="2" stroke-linecap="round" stroke-linejoin="round"/>
<path d="M14.6666 4V6.66667" stroke="#227DDE" stroke-width="2" stroke-linecap="round" stroke-linejoin="round"/>
<path d="M8 4V6.66667" stroke="#227DDE" stroke-width="2" stroke-linecap="round" stroke-linejoin="round"/>
<path d="M26.6667 16C28.1394 16 29.3333 14.8061 29.3333 13.3333C29.3333 11.8606 28.1394 10.6667 26.6667 10.6667C25.1939 10.6667 24 11.8606 24 13.3333C24 14.8061 25.1939 16 26.6667 16Z" stroke="#227DDE" stroke-width="2" stroke-linecap="round" stroke-linejoin="round"/>
</g>
<defs>
<clipPath id="clip0_14_4929">
<rect width="32" height="32" fill="white"/>
</clipPath>
</defs>
</svg>
