<svg width="24" height="24" viewBox="0 0 24 24" fill="none" xmlns="http://www.w3.org/2000/svg">
<path d="M19.44 13C19.22 13 18.99 12.93 18.77 12.88C18.3245 12.7818 17.8867 12.6515 17.46 12.49C16.9961 12.3212 16.4862 12.33 16.0283 12.5146C15.5705 12.6992 15.1971 13.0466 14.98 13.49L14.76 13.94C13.786 13.3982 12.891 12.7252 12.1 11.94C11.3148 11.149 10.6418 10.254 10.1 9.27999L10.52 8.99999C10.9634 8.78291 11.3108 8.40952 11.4954 7.95168C11.68 7.49384 11.6888 6.9839 11.52 6.51999C11.3612 6.09241 11.2309 5.65479 11.13 5.20999C11.08 4.98999 11.04 4.75999 11.01 4.52999C10.8886 3.82561 10.5196 3.18773 9.96963 2.73123C9.41963 2.27473 8.72471 2.0296 8.01001 2.03999H5.01001C4.57904 2.03594 4.15226 2.1248 3.75872 2.30052C3.36518 2.47624 3.01412 2.73469 2.72944 3.05827C2.44476 3.38186 2.23314 3.76298 2.109 4.1757C1.98485 4.58842 1.95109 5.02305 2.01001 5.44999C2.54275 9.63937 4.45604 13.5319 7.44766 16.5126C10.4393 19.4934 14.3387 21.3925 18.53 21.91H18.91C19.6474 21.9111 20.3594 21.6405 20.91 21.15C21.2264 20.867 21.4791 20.5202 21.6515 20.1323C21.8239 19.7444 21.912 19.3244 21.91 18.9V15.9C21.8978 15.2054 21.6448 14.5365 21.1943 14.0077C20.7439 13.4788 20.1238 13.1226 19.44 13ZM19.94 19C19.9398 19.142 19.9094 19.2823 19.8508 19.4116C19.7922 19.5409 19.7067 19.6563 19.6 19.75C19.4883 19.8465 19.3576 19.9185 19.2164 19.9616C19.0752 20.0046 18.9266 20.0177 18.78 20C15.0349 19.5198 11.5562 17.8065 8.89273 15.1303C6.22921 12.4541 4.53242 8.96733 4.07001 5.21999C4.05409 5.07351 4.06804 4.92532 4.11101 4.78438C4.15398 4.64344 4.22508 4.51268 4.32001 4.39999C4.41372 4.29332 4.52907 4.20783 4.65839 4.14921C4.78771 4.09058 4.92802 4.06017 5.07001 4.05999H8.07001C8.30256 4.05482 8.52963 4.13087 8.71215 4.27506C8.89467 4.41925 9.02122 4.62256 9.07001 4.84999C9.11001 5.12332 9.16001 5.39332 9.22001 5.65999C9.33553 6.18713 9.48927 6.70517 9.68001 7.20999L8.28001 7.85999C8.16031 7.91491 8.05263 7.99294 7.96317 8.08959C7.8737 8.18623 7.80421 8.2996 7.75868 8.42318C7.71315 8.54677 7.69248 8.67812 7.69786 8.80971C7.70323 8.9413 7.73455 9.07054 7.79001 9.18999C9.22921 12.2727 11.7073 14.7508 14.79 16.19C15.0335 16.29 15.3065 16.29 15.55 16.19C15.6747 16.1454 15.7893 16.0764 15.8872 15.9872C15.985 15.8979 16.0642 15.7901 16.12 15.67L16.74 14.27C17.257 14.4549 17.7846 14.6085 18.32 14.73C18.5867 14.79 18.8567 14.84 19.13 14.88C19.3574 14.9288 19.5607 15.0553 19.7049 15.2378C19.8491 15.4204 19.9252 15.6474 19.92 15.88L19.94 19Z" fill="black"/>
</svg>
