<svg width="15" height="16" viewBox="0 0 15 16" fill="none" xmlns="http://www.w3.org/2000/svg">
<path fill-rule="evenodd" clip-rule="evenodd" d="M5.5625 1.2793H9.41875C11.1125 1.2793 12.4812 1.96367 12.5 3.70339V13.4126C12.5 13.5213 12.475 13.63 12.425 13.726C12.3438 13.8795 12.2063 13.9946 12.0375 14.0458C11.875 14.0969 11.6938 14.0714 11.5437 13.9818L7.49375 11.9095L3.4375 13.9818C3.34438 14.0323 3.2375 14.065 3.13125 14.065C2.78125 14.065 2.5 13.7707 2.5 13.4126V3.70339C2.5 1.96367 3.875 1.2793 5.5625 1.2793ZM5.1375 6.15307H9.84375C10.1125 6.15307 10.3312 5.92857 10.3312 5.64778C10.3312 5.36636 10.1125 5.14249 9.84375 5.14249H5.1375C4.86875 5.14249 4.65 5.36636 4.65 5.64778C4.65 5.92857 4.86875 6.15307 5.1375 6.15307Z" fill="white"/>
</svg>
