<svg width="16" height="16" viewBox="0 0 16 16" fill="none" xmlns="http://www.w3.org/2000/svg">
<path fill-rule="evenodd" clip-rule="evenodd" d="M2.33337 6.87855C2.33337 3.81197 4.89596 1.33337 7.99567 1.33337C11.1041 1.33337 13.6667 3.81197 13.6667 6.87855C13.6667 8.42383 13.1047 9.85846 12.1797 11.0744C11.1592 12.4157 9.90148 13.5844 8.48574 14.5017C8.16172 14.7137 7.86929 14.7297 7.51368 14.5017C6.08987 13.5844 4.8321 12.4157 3.82037 11.0744C2.8947 9.85846 2.33337 8.42383 2.33337 6.87855ZM6.12953 7.05119C6.12953 8.0785 6.96781 8.88647 7.99567 8.88647C9.0242 8.88647 9.87055 8.0785 9.87055 7.05119C9.87055 6.03189 9.0242 5.18458 7.99567 5.18458C6.96781 5.18458 6.12953 6.03189 6.12953 7.05119Z" fill="#2B2E32"/>
</svg>
