<svg width="24" height="24" viewBox="0 0 24 24" fill="none" xmlns="http://www.w3.org/2000/svg">
<path d="M14.53 9.46992L9.47004 14.5299C8.82004 13.8799 8.42004 12.9899 8.42004 11.9999C8.42004 10.0199 10.02 8.41992 12 8.41992C12.99 8.41992 13.88 8.81992 14.53 9.46992Z" stroke="#90979E" stroke-width="1.5" stroke-linecap="round" stroke-linejoin="round"/>
<path d="M17.82 5.76998C16.07 4.44998 14.07 3.72998 12 3.72998C8.46997 3.72998 5.17997 5.80998 2.88997 9.40998C1.98997 10.82 1.98997 13.19 2.88997 14.6C3.67997 15.84 4.59997 16.91 5.59997 17.77" stroke="#90979E" stroke-width="1.5" stroke-linecap="round" stroke-linejoin="round"/>
<path d="M8.42004 19.5299C9.56004 20.0099 10.77 20.2699 12 20.2699C15.53 20.2699 18.82 18.1899 21.11 14.5899C22.01 13.1799 22.01 10.8099 21.11 9.39993C20.78 8.87993 20.42 8.38993 20.05 7.92993" stroke="#90979E" stroke-width="1.5" stroke-linecap="round" stroke-linejoin="round"/>
<path d="M15.5099 12.7C15.2499 14.11 14.0999 15.26 12.6899 15.52" stroke="#90979E" stroke-width="1.5" stroke-linecap="round" stroke-linejoin="round"/>
<path d="M9.47 14.53L2 22" stroke="#90979E" stroke-width="1.5" stroke-linecap="round" stroke-linejoin="round"/>
<path d="M22 2L14.53 9.47" stroke="#90979E" stroke-width="1.5" stroke-linecap="round" stroke-linejoin="round"/>
</svg>
