<svg width="32" height="32" viewBox="0 0 32 32" fill="none" xmlns="http://www.w3.org/2000/svg">
<g clip-path="url(#clip0_16_2722)">
<path d="M14.0945 17.9806C13.9302 16.5034 13.7606 14.9771 13.7606 13.5212C13.7606 10.8654 13.7606 3.81201 8.90975 3.81201C3.47016 3.81201 0.000551122 16.7946 0.000551122 23.5748C-0.00688634 24.5753 0.036801 29.6544 1.70179 31.3332C2.12841 31.763 2.64997 31.9913 3.21103 31.9913C4.38853 31.9913 5.01252 31.5113 5.67271 31.0047C6.39264 30.45 7.38032 29.6927 9.91668 28.9611C15.1472 27.4541 14.5883 22.4208 14.0945 17.9806ZM9.32787 26.9112C6.4022 27.7549 5.18202 28.6924 4.37465 29.3132C3.81365 29.7452 3.65472 29.8539 3.24297 29.8593C2.64891 29.47 2.11348 26.4516 2.13479 23.5835C2.13479 15.8358 5.93395 5.94525 8.91081 5.94525C10.7646 5.94525 11.6285 8.35255 11.6285 13.5223C11.6285 15.0956 11.8045 16.6826 11.9751 18.2164C12.5212 23.1248 12.6674 25.9491 9.32787 26.9112Z" fill="#227DDE"/>
<path d="M30.9992 23.5834H30.9992C30.9992 20.3173 30.1566 15.4939 28.6489 11.5051C27.895 9.51049 26.9981 7.7878 26.0047 6.58243C25.0027 5.3665 24.0208 4.81201 23.089 4.81201C22.1518 4.81201 21.5002 5.14002 21.0035 5.65194C20.4791 6.19236 20.0858 6.98458 19.8069 7.94841C19.2462 9.88666 19.2402 12.1739 19.2402 13.5201C19.2402 15.0338 19.0653 16.6073 18.903 18.0668L18.9003 18.0911L18.9003 18.0911C18.6483 20.3564 18.4161 22.5441 18.8239 24.3495C19.0219 25.2264 19.3636 25.9681 19.8991 26.5655C20.4313 27.1591 21.205 27.6665 22.3591 27.9992L22.3594 27.9993C25.0426 28.7736 26.1411 29.5998 26.9355 30.21C27.5759 30.7008 27.9692 30.9913 28.791 30.9913C29.0607 30.9913 29.3319 30.8881 29.588 30.6302L30.9992 23.5834ZM30.9992 23.5834L30.9992 23.592M30.9992 23.5834L30.9992 23.592M30.9992 23.592C31.0033 24.0679 30.9942 25.5316 30.7853 27.0668M30.9992 23.592L30.7853 27.0668M29.0535 30.862L28.7471 30.8581C28.4257 30.854 28.124 30.8029 27.7952 30.6358C27.5407 30.5064 27.2874 30.3123 27.0385 30.1216L27.018 30.1058L27.0172 30.1052L26.9953 30.0885C26.2537 29.5189 25.1384 28.6624 22.396 27.871L29.0535 30.862ZM29.0535 30.862L29.3095 30.6936M29.0535 30.862L29.3095 30.6936M29.3095 30.6936C29.5782 30.5169 29.7467 30.2669 29.8481 30.089C29.9601 29.8926 30.0529 29.6704 30.1315 29.4455C30.2891 28.9939 30.4224 28.4337 30.5302 27.8244C30.7465 26.602 30.8789 25.0738 30.867 23.5878C30.8663 19.5708 29.887 15.0397 28.5282 11.5023C27.8491 9.73414 27.0565 8.16535 26.2089 7.01843C25.7852 6.44524 25.3242 5.94507 24.8278 5.58043C24.3331 5.21706 23.7442 4.94625 23.0899 4.94625C22.6217 4.94625 21.9896 5.03115 21.3794 5.50629C20.7911 5.96431 20.343 6.69218 20.0137 7.72426L20.0135 7.72468C19.4289 9.55963 19.3733 11.9745 19.3733 13.5212C19.3733 15.0308 19.2045 16.563 19.0329 18.1057L19.0329 18.1057M29.3095 30.6936L19.0329 18.1057M19.0329 18.1057C18.7652 20.5118 18.5616 22.623 18.9159 24.2552M19.0329 18.1057L18.9159 24.2552M30.7853 27.0668C30.6808 27.8349 30.5298 28.5937 30.3171 29.2436M30.7853 27.0668L30.3171 29.2436M30.3171 29.2436C30.0988 29.9104 29.8446 30.3714 29.5881 30.6301L30.3171 29.2436ZM18.9159 24.2552C19.1006 25.106 19.4453 25.8811 20.045 26.5203M18.9159 24.2552L20.045 26.5203M20.045 26.5203C20.6436 27.1583 21.4329 27.5933 22.3957 27.8709L20.045 26.5203Z" fill="#227DDE" stroke="#227DDE" stroke-width="2"/>
<path d="M16.0637 11.8011L16.064 11.802C16.4289 12.7622 16.8789 13.3846 17.4001 13.7508C17.9526 14.1389 18.4545 14.1448 18.6552 14.1448C18.6922 14.1448 18.7218 14.1743 18.7218 14.2113C18.7218 14.2485 18.6921 14.2779 18.6552 14.2779C18.1044 14.2779 17.4073 14.1088 16.7697 13.3439L16.0015 12.4223L15.2334 13.3439C14.5957 14.109 13.8985 14.2779 13.3489 14.2779C13.3125 14.2779 13.2823 14.2479 13.2823 14.2113C13.2823 14.1749 13.3124 14.1448 13.3489 14.1448C13.5496 14.1448 14.0511 14.1388 14.6035 13.7505C15.1244 13.3842 15.5746 12.7619 15.94 11.8013L15.9405 11.8C15.9491 11.7774 15.9729 11.7589 16.0026 11.7589C16.0294 11.7589 16.054 11.7757 16.0637 11.8011Z" fill="#227DDE" stroke="#227DDE" stroke-width="2"/>
<path d="M15.9338 1.07528C15.9338 1.0389 15.9639 1.00873 16.0005 1.00873C16.0369 1.00873 16.067 1.03882 16.067 1.07528V12.0238C16.067 12.0604 16.0369 12.0905 16.0005 12.0905C15.964 12.0905 15.9338 12.0603 15.9338 12.0238V1.07528Z" fill="#227DDE" stroke="#227DDE" stroke-width="2"/>
</g>
<defs>
<clipPath id="clip0_16_2722">
<rect width="32" height="32" fill="white"/>
</clipPath>
</defs>
</svg>
