<svg width="32" height="32" viewBox="0 0 32 32" fill="none" xmlns="http://www.w3.org/2000/svg">
<g clip-path="url(#clip0_16_2987)">
<path d="M30.8856 13.7162C30.1774 13.1632 29.2713 12.9709 28.3997 13.189L27.3173 13.4596C27.1294 12.6141 26.8493 11.8004 26.4844 11.0294L28.4263 9.90831C28.8746 9.64944 29.0282 9.07612 28.7694 8.62769C28.5105 8.17931 27.9373 8.0255 27.4888 8.28456L25.5457 9.40631C25.0605 8.70644 24.4957 8.05737 23.8571 7.471L24.6343 6.66725C25.2588 6.02125 25.5454 5.14044 25.4207 4.25069C25.2959 3.36081 24.7781 2.59287 24 2.14369C23.2219 1.69437 22.2979 1.62994 21.4649 1.96681C20.6319 2.30369 20.0125 2.99225 19.7654 3.85612L19.4608 4.92081C18.6398 4.66344 17.7961 4.5 16.9374 4.43112V2.19275C16.9374 1.675 16.5177 1.25525 15.9999 1.25525C15.4822 1.25525 15.0624 1.675 15.0624 2.19275V4.43112C14.2037 4.5 13.3602 4.6635 12.5391 4.92081L12.2345 3.85612C11.9874 2.99231 11.3679 2.30362 10.535 1.96681C9.70212 1.62994 8.77806 1.6945 7.99988 2.14369C7.22175 2.59294 6.70394 3.36087 6.57919 4.25062C6.45444 5.14037 6.74106 6.02119 7.36562 6.66719L8.14281 7.47094C7.50419 8.05737 6.93937 8.70637 6.45412 9.40625L4.51119 8.2845C4.06275 8.0255 3.48937 8.17925 3.23056 8.62762C2.97169 9.07606 3.12531 9.64944 3.57369 9.90825L5.51556 11.0294C5.15056 11.8003 4.8705 12.6141 4.68262 13.4595L3.60019 13.1889C2.72837 12.9708 1.82244 13.1632 1.11425 13.7161C0.406187 14.2692 0 15.1016 0 16.0001C0 16.8986 0.406187 17.7309 1.11437 18.2839C1.82256 18.8369 2.72875 19.0291 3.60031 18.8111L4.68269 18.5406C4.87056 19.386 5.15069 20.1997 5.51569 20.9707L3.57375 22.0918C3.12538 22.3507 2.97175 22.924 3.23062 23.3724C3.40425 23.6732 3.71938 23.8414 4.04338 23.8414C4.20237 23.8414 4.36363 23.8009 4.51125 23.7156L6.45419 22.5938C6.93937 23.2937 7.50419 23.9427 8.14281 24.5291L7.36556 25.3329C6.741 25.9789 6.45437 26.8597 6.57919 27.7494C6.704 28.6392 7.22181 29.4071 7.99994 29.8564C8.44862 30.1155 8.94581 30.2466 9.44613 30.2466C9.81338 30.2465 10.1824 30.1758 10.5351 30.0332C11.368 29.6964 11.9874 29.0078 12.2346 28.1439L12.5392 27.0792C13.3602 27.3366 14.2038 27.5001 15.0625 27.5689V29.8073C15.0625 30.3251 15.4823 30.7448 16 30.7448C16.5177 30.7448 16.9375 30.3251 16.9375 29.8073V27.5689C17.7962 27.5001 18.6397 27.3366 19.4608 27.0792L19.7654 28.1439C20.0126 29.0077 20.6319 29.6964 21.4649 30.0332C22.2979 30.3701 23.2219 30.3056 24.0001 29.8564C24.7782 29.4071 25.296 28.6392 25.4207 27.7494C25.5455 26.8597 25.2589 25.9789 24.6343 25.3329L23.8571 24.5291C24.4957 23.9427 25.0605 23.2936 25.5457 22.5938L27.4886 23.7156C27.6362 23.8008 27.7974 23.8414 27.9565 23.8414C28.2805 23.8414 28.5957 23.6732 28.7693 23.3724C29.0281 22.924 28.8745 22.3506 28.4261 22.0918L26.4842 20.9707C26.8492 20.1997 27.1293 19.386 27.3172 18.5406L28.3996 18.8111C29.2713 19.0291 30.1773 18.8368 30.8856 18.2839C31.5938 17.7309 32 16.8986 32 16.0001C32 15.1016 31.5938 14.2692 30.8856 13.7162ZM29.7318 16.8061C29.4819 17.0012 29.1621 17.0691 28.8544 16.9922L26.7964 16.4777C26.5369 16.4127 26.2621 16.4619 26.0411 16.6124C25.8201 16.7631 25.6739 17.0009 25.6394 17.2662C25.3048 19.8372 23.9818 22.1274 21.914 23.7152C21.7021 23.8779 21.5697 24.1233 21.55 24.3897C21.5304 24.6562 21.6253 24.9184 21.811 25.1104L23.2864 26.6364C23.5068 26.8643 23.608 27.1752 23.5639 27.4892C23.5199 27.8032 23.3371 28.0742 23.0625 28.2327C22.7879 28.3912 22.4618 28.414 22.1679 28.2951C21.8739 28.1763 21.6553 27.9332 21.5681 27.6284L20.9872 25.5977C20.9137 25.3407 20.7339 25.1273 20.4932 25.0111C20.2523 24.895 19.9734 24.8872 19.7265 24.9897C18.54 25.4822 17.2863 25.7319 16.0001 25.7319C14.7139 25.7319 13.4602 25.4822 12.2736 24.9897C12.0268 24.8871 11.7477 24.8949 11.5069 25.0111C11.2661 25.1272 11.0864 25.3406 11.0129 25.5977L10.432 27.6284C10.3448 27.9332 10.1262 28.1763 9.83225 28.2951C9.53831 28.4141 9.21219 28.3914 8.93756 28.2327C8.66294 28.0742 8.48025 27.8032 8.43619 27.4892C8.39213 27.1752 8.49331 26.8644 8.71369 26.6364L10.1892 25.1104C10.3749 24.9184 10.4698 24.6562 10.4502 24.3897C10.4305 24.1233 10.2981 23.8779 10.0862 23.7152C8.01844 22.1275 6.69544 19.8372 6.36081 17.2662C6.32631 17.0009 6.18013 16.7631 5.95913 16.6124C5.802 16.5054 5.61775 16.4497 5.43113 16.4497C5.35519 16.4497 5.27881 16.4589 5.20375 16.4777L3.14569 16.9922C2.838 17.0689 2.51825 17.0013 2.26837 16.8061C2.01831 16.6109 1.875 16.3171 1.875 16.0001C1.875 15.683 2.01831 15.3892 2.26825 15.1941C2.51819 14.9989 2.83787 14.9311 3.14556 15.0079L5.20363 15.5224C5.46313 15.5875 5.738 15.5383 5.95894 15.3877C6.17994 15.2371 6.32612 14.9992 6.36062 14.7339C6.69525 12.1629 8.01831 9.87262 10.0861 8.28494C10.2979 8.12219 10.4304 7.87687 10.4501 7.61037C10.4698 7.34394 10.3748 7.08175 10.1891 6.88969L8.71369 5.36381C8.49325 5.13587 8.39206 4.825 8.43612 4.51094C8.48019 4.197 8.66288 3.926 8.9375 3.76744C9.21212 3.60887 9.53813 3.58612 9.83212 3.70506C10.1261 3.82387 10.3447 4.06694 10.4319 4.37175L11.0127 6.40244C11.0862 6.6595 11.2661 6.87287 11.5068 6.98906C11.7477 7.10519 12.0266 7.113 12.2735 7.0105C13.46 6.518 14.7137 6.26831 15.9999 6.26831C17.2861 6.26831 18.5398 6.518 19.7264 7.0105C19.9732 7.113 20.2522 7.10525 20.4931 6.98906C20.7339 6.87294 20.9136 6.65956 20.9871 6.40244L21.568 4.37175C21.6553 4.06694 21.8738 3.82387 22.1677 3.70506C22.4618 3.58625 22.7878 3.60894 23.0624 3.76744C23.3371 3.926 23.5198 4.197 23.5638 4.51094C23.6079 4.82494 23.5067 5.13581 23.2863 5.36381L21.8109 6.88975C21.6251 7.08181 21.5302 7.34406 21.5499 7.61044C21.5695 7.87694 21.702 8.12225 21.9139 8.285C23.9816 9.87262 25.3047 12.1629 25.6393 14.734C25.6738 14.9992 25.82 15.2371 26.041 15.3877C26.2621 15.5384 26.5369 15.5875 26.7963 15.5225L28.8544 15.008C29.1619 14.9312 29.4818 14.9989 29.7317 15.1941C29.9817 15.3892 30.125 15.683 30.125 16.0001C30.125 16.3171 29.9817 16.6109 29.7318 16.8061Z" fill="#227DDE"/>
<mask id="path-2-inside-1_16_2987" fill="white">
<path d="M20.375 15.6874C18.8242 15.6874 17.5625 16.9491 17.5625 18.4999C17.5625 20.0508 18.8242 21.3124 20.375 21.3124C21.9258 21.3124 23.1875 20.0508 23.1875 18.4999C23.1875 16.9491 21.9258 15.6874 20.375 15.6874ZM20.375 19.4374C19.8581 19.4374 19.4375 19.0169 19.4375 18.4999C19.4375 17.983 19.8581 17.5624 20.375 17.5624C20.8919 17.5624 21.3125 17.983 21.3125 18.4999C21.3125 19.0169 20.8919 19.4374 20.375 19.4374Z"/>
</mask>
<path d="M20.375 15.6874C18.8242 15.6874 17.5625 16.9491 17.5625 18.4999C17.5625 20.0508 18.8242 21.3124 20.375 21.3124C21.9258 21.3124 23.1875 20.0508 23.1875 18.4999C23.1875 16.9491 21.9258 15.6874 20.375 15.6874ZM20.375 19.4374C19.8581 19.4374 19.4375 19.0169 19.4375 18.4999C19.4375 17.983 19.8581 17.5624 20.375 17.5624C20.8919 17.5624 21.3125 17.983 21.3125 18.4999C21.3125 19.0169 20.8919 19.4374 20.375 19.4374Z" fill="#227DDE"/>
<path d="M20.375 13.6874C17.7196 13.6874 15.5625 15.8446 15.5625 18.4999H19.5625C19.5625 18.0537 19.9288 17.6874 20.375 17.6874V13.6874ZM15.5625 18.4999C15.5625 21.1553 17.7196 23.3124 20.375 23.3124V19.3124C19.9288 19.3124 19.5625 18.9462 19.5625 18.4999H15.5625ZM20.375 23.3124C23.0304 23.3124 25.1875 21.1553 25.1875 18.4999H21.1875C21.1875 18.9462 20.8212 19.3124 20.375 19.3124V23.3124ZM25.1875 18.4999C25.1875 15.8446 23.0304 13.6874 20.375 13.6874V17.6874C20.8212 17.6874 21.1875 18.0537 21.1875 18.4999H25.1875ZM20.375 17.4374C20.9626 17.4374 21.4375 17.9123 21.4375 18.4999H17.4375C17.4375 20.1214 18.7535 21.4374 20.375 21.4374V17.4374ZM21.4375 18.4999C21.4375 19.0876 20.9626 19.5624 20.375 19.5624V15.5624C18.7535 15.5624 17.4375 16.8784 17.4375 18.4999H21.4375ZM20.375 19.5624C19.7874 19.5624 19.3125 19.0876 19.3125 18.4999H23.3125C23.3125 16.8784 21.9965 15.5624 20.375 15.5624V19.5624ZM19.3125 18.4999C19.3125 17.9123 19.7874 17.4374 20.375 17.4374V21.4374C21.9965 21.4374 23.3125 20.1214 23.3125 18.4999H19.3125Z" fill="#227DDE" mask="url(#path-2-inside-1_16_2987)"/>
<mask id="path-4-inside-2_16_2987" fill="white">
<path d="M12.25 10.6874C10.3546 10.6874 8.8125 12.2295 8.8125 14.1249C8.8125 16.0204 10.3546 17.5624 12.25 17.5624C14.1454 17.5624 15.6875 16.0204 15.6875 14.1249C15.6875 12.2295 14.1454 10.6874 12.25 10.6874ZM12.25 15.6874C11.3884 15.6874 10.6875 14.9865 10.6875 14.1249C10.6875 13.2634 11.3884 12.5624 12.25 12.5624C13.1116 12.5624 13.8125 13.2634 13.8125 14.1249C13.8125 14.9865 13.1116 15.6874 12.25 15.6874Z"/>
</mask>
<path d="M12.25 10.6874C10.3546 10.6874 8.8125 12.2295 8.8125 14.1249C8.8125 16.0204 10.3546 17.5624 12.25 17.5624C14.1454 17.5624 15.6875 16.0204 15.6875 14.1249C15.6875 12.2295 14.1454 10.6874 12.25 10.6874ZM12.25 15.6874C11.3884 15.6874 10.6875 14.9865 10.6875 14.1249C10.6875 13.2634 11.3884 12.5624 12.25 12.5624C13.1116 12.5624 13.8125 13.2634 13.8125 14.1249C13.8125 14.9865 13.1116 15.6874 12.25 15.6874Z" fill="#227DDE"/>
<path d="M12.25 8.68744C9.24999 8.68744 6.8125 11.1249 6.8125 14.1249H10.8125C10.8125 13.3341 11.4591 12.6874 12.25 12.6874V8.68744ZM6.8125 14.1249C6.8125 17.1249 9.24999 19.5624 12.25 19.5624V15.5624C11.4591 15.5624 10.8125 14.9158 10.8125 14.1249H6.8125ZM12.25 19.5624C15.25 19.5624 17.6875 17.1249 17.6875 14.1249H13.6875C13.6875 14.9158 13.0409 15.5624 12.25 15.5624V19.5624ZM17.6875 14.1249C17.6875 11.1249 15.25 8.68744 12.25 8.68744V12.6874C13.0409 12.6874 13.6875 13.3341 13.6875 14.1249H17.6875ZM12.25 13.6874C12.493 13.6874 12.6875 13.8819 12.6875 14.1249H8.6875C8.6875 16.0911 10.2839 17.6874 12.25 17.6874V13.6874ZM12.6875 14.1249C12.6875 14.3679 12.493 14.5624 12.25 14.5624V10.5624C10.2839 10.5624 8.6875 12.1588 8.6875 14.1249H12.6875ZM12.25 14.5624C12.007 14.5624 11.8125 14.3679 11.8125 14.1249H15.8125C15.8125 12.1588 14.2161 10.5624 12.25 10.5624V14.5624ZM11.8125 14.1249C11.8125 13.8819 12.007 13.6874 12.25 13.6874V17.6874C14.2161 17.6874 15.8125 16.0911 15.8125 14.1249H11.8125Z" fill="#227DDE" mask="url(#path-4-inside-2_16_2987)"/>
</g>
<defs>
<clipPath id="clip0_16_2987">
<rect width="32" height="32" fill="white"/>
</clipPath>
</defs>
</svg>
