<svg width="360" height="90" viewBox="0 0 369.89473684210526 92.1490143836493" class="looka-1j8o68f"><defs id="SvgjsDefs1057"></defs><g id="SvgjsG1058" featurekey="symbolFeature-0" transform="matrix(1.1512870231086276,0,0,1.1512870231086276,-11.656781108974855,-11.514020885688534)" fill="black"><path xmlns="http://www.w3.org/2000/svg" d="M40.231,38.586v5.977h-0.979c-1.972,0-3.576,1.604-3.576,3.576v8.551c0,7.967,6.481,14.448,14.448,14.448  s14.448-6.481,14.448-14.448v-8.551c0-1.972-1.604-3.576-3.576-3.576h-0.979v-5.977c0-5.455-4.438-9.894-9.894-9.894  S40.231,33.131,40.231,38.586z M62.573,48.139v8.551c0,6.864-5.584,12.448-12.448,12.448s-12.448-5.584-12.448-12.448v-8.551  c0-0.869,0.707-1.576,1.576-1.576h21.745C61.866,46.562,62.573,47.27,62.573,48.139z M54.161,44.562h-8.071v-5.637  c0-2.225,1.811-4.035,4.036-4.035s4.036,1.811,4.036,4.035V44.562z M58.019,38.586v5.977h-1.858v-5.637  c0-3.328-2.708-6.035-6.036-6.035s-6.036,2.707-6.036,6.035v5.637h-1.858v-5.977c0-4.353,3.541-7.894,7.894-7.894  S58.019,34.233,58.019,38.586z"></path><path xmlns="http://www.w3.org/2000/svg" d="M49.125,57.961v3.295c0,0.553,0.448,1,1,1s1-0.447,1-1v-3.295c1.487-0.436,2.583-1.797,2.583-3.424  c0-1.976-1.607-3.583-3.583-3.583s-3.583,1.607-3.583,3.583C46.542,56.163,47.638,57.524,49.125,57.961z M50.125,52.953  c0.873,0,1.583,0.71,1.583,1.583s-0.71,1.584-1.583,1.584s-1.583-0.711-1.583-1.584S49.252,52.953,50.125,52.953z"></path><path xmlns="http://www.w3.org/2000/svg" d="M79.691,16.268c0.469,2.427,2.604,4.268,5.167,4.268c2.904,0,5.267-2.363,5.267-5.268s-2.363-5.267-5.267-5.267  c-2.562,0-4.697,1.84-5.167,4.267H68.295c-0.294,0-0.573,0.13-0.764,0.354l-8.581,10.143c-2.764-0.973-5.733-1.508-8.826-1.508  s-6.062,0.535-8.826,1.508l-8.581-10.143c-0.19-0.225-0.47-0.354-0.764-0.354H20.559c-0.469-2.427-2.604-4.267-5.167-4.267  c-2.904,0-5.267,2.362-5.267,5.267s2.363,5.268,5.267,5.268c2.562,0,4.697-1.841,5.167-4.268h10.932l7.849,9.277  c-9.076,4.033-15.494,12.986-15.849,23.456h-2.949c-0.507-2.378-2.621-4.169-5.148-4.169c-2.904,0-5.267,2.363-5.267,5.268  s2.363,5.268,5.267,5.268c2.596,0,4.746-1.892,5.176-4.366h2.926c0.424,10.505,6.951,19.463,16.128,23.412l-7.919,9.359H20.559  c-0.469-2.427-2.604-4.268-5.167-4.268c-2.904,0-5.267,2.363-5.267,5.268s2.363,5.268,5.267,5.268c2.562,0,4.697-1.841,5.167-4.268  h11.608c0.294,0,0.573-0.13,0.763-0.354l8.673-10.25c2.678,0.906,5.542,1.405,8.523,1.405s5.845-0.499,8.523-1.405l8.673,10.25  c0.19,0.225,0.469,0.354,0.763,0.354h11.608c0.469,2.427,2.604,4.268,5.167,4.268c2.904,0,5.267-2.363,5.267-5.268  s-2.363-5.268-5.267-5.268c-2.562,0-4.697,1.841-5.167,4.268H68.547l-7.919-9.359c9.176-3.949,15.704-12.907,16.128-23.412h2.926  c0.43,2.474,2.58,4.366,5.176,4.366c2.904,0,5.267-2.363,5.267-5.268s-2.363-5.268-5.267-5.268c-2.528,0-4.641,1.791-5.148,4.169  H76.76c-0.355-10.47-6.773-19.423-15.849-23.456l7.849-9.277H79.691z M84.858,12.001c1.801,0,3.267,1.466,3.267,3.267  c0,1.802-1.466,3.268-3.267,3.268c-1.802,0-3.268-1.466-3.268-3.268C81.59,13.467,83.056,12.001,84.858,12.001z M15.392,18.535  c-1.801,0-3.267-1.466-3.267-3.268c0-1.801,1.466-3.267,3.267-3.267c1.802,0,3.268,1.466,3.268,3.267  C18.66,17.069,17.194,18.535,15.392,18.535z M15.392,53.367c-1.801,0-3.267-1.466-3.267-3.268s1.466-3.268,3.267-3.268  c1.802,0,3.268,1.466,3.268,3.268S17.194,53.367,15.392,53.367z M15.392,88.04c-1.801,0-3.267-1.466-3.267-3.268  s1.466-3.268,3.267-3.268c1.802,0,3.268,1.466,3.268,3.268S17.194,88.04,15.392,88.04z M84.858,81.505  c1.801,0,3.267,1.466,3.267,3.268s-1.466,3.268-3.267,3.268c-1.802,0-3.268-1.466-3.268-3.268S83.056,81.505,84.858,81.505z   M84.858,46.832c1.801,0,3.267,1.466,3.267,3.268s-1.466,3.268-3.267,3.268c-1.802,0-3.268-1.466-3.268-3.268  S83.056,46.832,84.858,46.832z M74.783,49.915c0,13.597-11.062,24.658-24.658,24.658S25.467,63.512,25.467,49.915  s11.062-24.658,24.658-24.658S74.783,36.318,74.783,49.915z"></path></g><g id="SvgjsG1059" featurekey="nameFeature-0" transform="matrix(0.9502150443041658,0,0,0.9502150443041658,108.36248182115979,26.812039081135037)" fill="black"><path d="M3.8281 38.5937 l6.4844 0 l0 -19.922 l-6.4844 -9.1406 l0 29.063 z M29.766 1.4059999999999988 l0 25.703 l-18.359 -25.703 l-7.0313 0 l26.406 37.188 l5.3906 0 l0 -37.188 l-6.4063 0 z M46.0938 1.4059999999999988 l27.813 0 l0 5.9375 l-27.813 0 l0 -5.9375 z M46.0938 16.875 l5.9375 0 l0 21.719 l-5.9375 0 l0 -21.719 z M46.0938 16.875 l25.078 0 l0 5.8594 l-25.078 0 l0 -5.8594 z M103.281 7.5 l11.797 0 l0 -6.0938 l-30.156 0 l0 6.0938 l18.359 0 z M96.719 13.594000000000001 l6.5625 0 l0 25 l-6.5625 0 l0 -25 z M154.609 25 c-0.36461 -0.98961 -0.88531 -1.8488 -1.5624 -2.578 c-0.46875 -0.52086 -1.224 -1.1198 -2.2656 -1.797 c-1.1459 -0.57289 -2.1615 -1.0156 -3.0469 -1.3281 c0.625 -0.36461 1.3021 -0.78125 2.0313 -1.25 c0.72914 -0.625 1.276 -1.224 1.6406 -1.7969 c0.46875 -0.625 0.85938 -1.3802 1.1719 -2.2656 c0.3125 -0.9375 0.46875 -1.9531 0.46875 -3.0469 c0 -2.9166 -1.0938 -5.2344 -3.2813 -6.9531 s-5.1563 -2.5781 -8.9063 -2.5781 l-14.453 0 l0 5.7813 l13.672 0 c1.9791 0 3.5938 0.41664 4.8438 1.25 c1.0938 0.83336 1.6406 2.0313 1.6406 3.5938 c0 1.7709 -0.625 3.0469 -1.875 3.8281 c-1.3021 0.83336 -2.9948 1.25 -5.0782 1.25 l-13.203 0 l0 5.4688 l14.609 0 c2.5 0 4.401 0.44273 5.7031 1.3281 c1.25 0.9375 1.875 2.1875 1.875 3.75 c0 1.6666 -0.625 2.9427 -1.875 3.828 c-1.3021 0.88539 -3.0469 1.3281 -5.2344 1.3281 l-15.078 0 l0 5.7813 l15 0 c2.0313 0 3.9063 -0.23438 5.625 -0.70313 c1.7709 -0.52086 3.2031 -1.1719 4.2969 -1.9531 s2.0313 -1.849 2.8125 -3.2031 c0.625 -1.25 0.9375 -2.7084 0.9375 -4.375 c0 -1.3021 -0.15625 -2.4219 -0.46875 -3.3594 z M183.281 16.875 l0 -15.547 l-6.5625 0 l0 37.344 l6.5625 0 l0 -21.797 z M232.813 27.344 c-0.98961 2.3959 -2.3438 4.375 -4.0625 5.9375 c-1.7709 1.6666 -3.8542 2.9688 -6.2501 3.9063 s-5.0781 1.4063 -8.0469 1.4063 l-8.6719 0 l0 -5.9375 l8.5938 0 c1.9791 0 3.776 -0.3125 5.3906 -0.9375 c1.5625 -0.625 2.9166 -1.5104 4.0625 -2.6563 s2.0313 -2.5 2.6563 -4.0625 s0.9375 -3.2813 0.9375 -5.1563 c0 -1.8229 -0.3125 -3.5156 -0.9375 -5.0781 c-0.625 -1.6146 -1.5104 -2.9427 -2.6563 -3.9844 c-1.0416 -1.0938 -2.3958 -1.9791 -4.0624 -2.6563 c-1.6666 -0.625 -3.4635 -0.9375 -5.3906 -0.9375 l-8.5938 0 l0 -5.9375 l8.6719 0 c2.7604 0 5.4166 0.49477 7.9688 1.4844 c2.3959 0.88539 4.5052 2.2135 6.3281 3.9844 c1.7709 1.6146 3.125 3.5938 4.0625 5.9375 c0.98961 2.3959 1.4844 4.8438 1.4844 7.3438 c0 2.7084 -0.49477 5.1563 -1.4844 7.3438 z M262.734 12.030999999999999 l-17.969 21.719 l0 4.8438 l30.469 0 l0 -5.7813 l-21.172 0 l16.953 -20.781 l-8.2813 0 z M245.4688 1.4059999999999988 l29.766 0 l0 5.7813 l-29.766 0 l0 -5.7813 z"></path></g></svg>